<svg width="25" height="24" viewBox="0 0 25 24" fill="none" xmlns="http://www.w3.org/2000/svg">
<path d="M12.5 2.3999C6.9775 2.3999 2.5 6.6983 2.5 11.9999C2.5 16.4983 5.72667 20.2623 10.0767 21.3039C10.03 21.1743 10 21.0239 10 20.8375V19.1967C9.59417 19.1967 8.91417 19.1967 8.74333 19.1967C8.05917 19.1967 7.45083 18.9143 7.15583 18.3895C6.82833 17.8063 6.77167 16.9143 5.96 16.3687C5.71917 16.1871 5.9025 15.9799 6.18 16.0079C6.6925 16.1471 7.1175 16.4847 7.5175 16.9855C7.91583 17.4871 8.10333 17.6007 8.8475 17.6007C9.20833 17.6007 9.74833 17.5807 10.2567 17.5039C10.53 16.8375 11.0025 16.2239 11.58 15.9343C8.25 15.6055 6.66083 14.0151 6.66083 11.8559C6.66083 10.9263 7.07333 10.0271 7.77417 9.2695C7.54417 8.5175 7.255 6.9839 7.8625 6.3999C9.36083 6.3999 10.2667 7.3327 10.4842 7.5847C11.2308 7.3391 12.0508 7.1999 12.9125 7.1999C13.7758 7.1999 14.5992 7.3391 15.3475 7.5863C15.5625 7.3359 16.4692 6.3999 17.9708 6.3999C18.5808 6.9847 18.2883 8.5247 18.0558 9.2751C18.7525 10.0311 19.1625 10.9279 19.1625 11.8559C19.1625 14.0135 17.5758 15.6031 14.2508 15.9335C15.1658 16.3919 15.8333 17.6799 15.8333 18.6503V20.8375C15.8333 20.9207 15.8142 20.9807 15.8042 21.0519C19.7008 19.7407 22.5 16.1887 22.5 11.9999C22.5 6.6983 18.0225 2.3999 12.5 2.3999Z" fill="#CCD6F6"/>
</svg>
