<svg width="25" height="24" viewBox="0 0 25 24" fill="none" xmlns="http://www.w3.org/2000/svg">
<path d="M20.0002 3.2002H5.00016C4.07933 3.2002 3.3335 3.9162 3.3335 4.8002V19.2002C3.3335 20.0842 4.07933 20.8002 5.00016 20.8002H20.0002C20.921 20.8002 21.6668 20.0842 21.6668 19.2002V4.8002C21.6668 3.9162 20.921 3.2002 20.0002 3.2002ZM9.1285 17.6002H6.67016V10.0066H9.1285V17.6002ZM7.87433 8.921C7.08183 8.921 6.441 8.3042 6.441 7.545C6.441 6.7858 7.08266 6.1698 7.87433 6.1698C8.66433 6.1698 9.30683 6.7866 9.30683 7.545C9.30683 8.3042 8.66433 8.921 7.87433 8.921ZM18.3368 17.6002H15.8802V13.9074C15.8802 13.0266 15.8635 11.8938 14.6027 11.8938C13.3235 11.8938 13.1268 12.853 13.1268 13.8434V17.6002H10.6702V10.0066H13.0285V11.0442H13.0618C13.3902 10.4474 14.1918 9.8178 15.3877 9.8178C17.8768 9.8178 18.3368 11.3906 18.3368 13.4354V17.6002Z" fill="#CCD6F6"/>
</svg>
