<svg width="41" height="42" viewBox="0 0 41 42" fill="none" xmlns="http://www.w3.org/2000/svg">
<path d="M19.6168 1.03787C20.0894 0.756784 20.6779 0.756784 21.1504 1.03787L36.8032 10.3483C37.2578 10.6187 37.5363 11.1085 37.5363 11.6374V30.3626C37.5363 30.8915 37.2578 31.3813 36.8032 31.6517L21.1504 40.9621C20.6779 41.2432 20.0894 41.2432 19.6168 40.9621L3.96407 31.6517C3.50947 31.3813 3.23089 30.8915 3.23089 30.3626V11.6374C3.23089 11.1085 3.50947 10.6187 3.96407 10.3483L19.6168 1.03787Z" fill="#0A192F" stroke="#FF8C32"/>
<path d="M14.0789 31C13.7109 31 13.3909 30.864 13.1189 30.592C12.8469 30.32 12.7109 30 12.7109 29.632V14.848C12.7109 14.48 12.8469 14.16 13.1189 13.888C13.3909 13.616 13.7109 13.48 14.0789 13.48H14.6789C15.0949 13.48 15.4789 13.592 15.8309 13.816C16.1829 14.04 16.4389 14.336 16.5989 14.704L20.7989 23.776C20.7989 23.792 20.8069 23.8 20.8229 23.8C20.8389 23.8 20.8469 23.792 20.8469 23.776L25.0469 14.704C25.2069 14.336 25.4629 14.04 25.8149 13.816C26.1669 13.592 26.5509 13.48 26.9669 13.48H27.6629C28.0309 13.48 28.3509 13.616 28.6229 13.888C28.8949 14.16 29.0309 14.48 29.0309 14.848V29.632C29.0309 30 28.8949 30.32 28.6229 30.592C28.3509 30.864 28.0309 31 27.6629 31H27.1349C26.7669 31 26.4469 30.864 26.1749 30.592C25.9029 30.32 25.7669 30 25.7669 29.632V19.192C25.7669 19.176 25.7589 19.168 25.7429 19.168C25.7269 19.168 25.7189 19.176 25.7189 19.192L22.8389 25.36C22.6629 25.728 22.3909 26.032 22.0229 26.272C21.6709 26.496 21.2949 26.608 20.8949 26.608H20.7509C20.3509 26.608 19.9669 26.496 19.5989 26.272C19.2469 26.032 18.9829 25.728 18.8069 25.36L15.9269 19.192C15.9269 19.176 15.9189 19.168 15.9029 19.168C15.8869 19.168 15.8789 19.176 15.8789 19.192V29.632C15.8789 30 15.7429 30.32 15.4709 30.592C15.1989 30.864 14.8789 31 14.5109 31H14.0789Z" fill="#FF8C32"/>
</svg>
