<svg width="26" height="367" viewBox="0 0 26 367" fill="none" xmlns="http://www.w3.org/2000/svg">
<line x1="12.5" y1="316.997" x2="12.8333" y2="366.997" stroke="#CCD6F6"/>
<path d="M16.84 12.3267C16.84 12.7267 16.7533 13.0867 16.58 13.4067C16.4067 13.7267 16.1033 13.9767 15.67 14.1567C15.2367 14.3433 14.63 14.4367 13.85 14.4367L6 14.4367V12.4467L13.54 12.4467C14.0933 12.4467 14.49 12.4067 14.73 12.3267C14.97 12.2533 15.09 12.0567 15.09 11.7367C15.09 11.4833 15.01 11.2267 14.85 10.9667C14.6967 10.7067 14.43 10.4433 14.05 10.1767L6 10.1767V8.36668L13.54 8.36668C14.0933 8.36668 14.49 8.32668 14.73 8.24668C14.97 8.17334 15.09 7.97668 15.09 7.65668C15.09 7.39668 15.01 7.13668 14.85 6.87668C14.6967 6.62334 14.43 6.36334 14.05 6.09668L6 6.09668V4.09668L16.56 4.09668V5.78668L15.42 5.93668C15.84 6.23668 16.18 6.56334 16.44 6.91668C16.7067 7.27001 16.84 7.69668 16.84 8.19668C16.84 8.59668 16.74 8.96001 16.54 9.28668C16.34 9.61334 15.99 9.85334 15.49 10.0067C15.89 10.3 16.2133 10.6333 16.46 11.0067C16.7133 11.38 16.84 11.82 16.84 12.3267ZM16.84 21.2689C16.84 22.3022 16.61 23.1722 16.15 23.8789C15.69 24.5855 15.0467 25.1189 14.22 25.4789C13.3933 25.8455 12.42 26.0289 11.3 26.0289C10.1867 26.0289 9.21 25.8422 8.37 25.4689C7.53667 25.1022 6.88667 24.5622 6.42 23.8489C5.96 23.1422 5.73 22.2789 5.73 21.2589C5.73 20.2389 5.95333 19.3722 6.4 18.6589C6.85333 17.9522 7.49667 17.4122 8.33 17.0389C9.16333 16.6722 10.1467 16.4889 11.28 16.4889C12.38 16.4889 13.3467 16.6722 14.18 17.0389C15.0133 17.4122 15.6633 17.9555 16.13 18.6689C16.6033 19.3822 16.84 20.2489 16.84 21.2689ZM15.1 21.2689C15.1 20.4622 14.79 19.8555 14.17 19.4489C13.5567 19.0422 12.5933 18.8389 11.28 18.8389C9.97333 18.8389 9.01 19.0389 8.39 19.4389C7.77 19.8455 7.46 20.4522 7.46 21.2589C7.46 22.0655 7.77 22.6689 8.39 23.0689C9.01 23.4755 9.98 23.6789 11.3 23.6789C12.6 23.6789 13.5567 23.4789 14.17 23.0789C14.79 22.6789 15.1 22.0755 15.1 21.2689ZM7.67 31.3111C8.03 31.3111 8.35333 31.3944 8.64 31.5611C8.93333 31.7344 9.16667 31.9677 9.34 32.2611C9.51333 32.5544 9.6 32.8811 9.6 33.2411C9.6 33.6077 9.51333 33.9377 9.34 34.2311C9.16667 34.5244 8.93333 34.7544 8.64 34.9211C8.35333 35.0944 8.03 35.1811 7.67 35.1811C7.31667 35.1811 6.99 35.0944 6.69 34.9211C6.39667 34.7544 6.16333 34.5244 5.99 34.2311C5.81667 33.9377 5.73 33.6077 5.73 33.2411C5.73 32.8811 5.81667 32.5544 5.99 32.2611C6.16333 31.9677 6.39667 31.7344 6.69 31.5611C6.99 31.3944 7.31667 31.3111 7.67 31.3111ZM16.84 48.3032C16.84 48.7032 16.7533 49.0632 16.58 49.3832C16.4067 49.7032 16.1033 49.9532 15.67 50.1332C15.2367 50.3199 14.63 50.4132 13.85 50.4132H6V48.4232H13.54C14.0933 48.4232 14.49 48.3832 14.73 48.3032C14.97 48.2299 15.09 48.0332 15.09 47.7132C15.09 47.4599 15.01 47.2032 14.85 46.9432C14.6967 46.6832 14.43 46.4199 14.05 46.1532H6V44.3432H13.54C14.0933 44.3432 14.49 44.3032 14.73 44.2232C14.97 44.1499 15.09 43.9532 15.09 43.6332C15.09 43.3732 15.01 43.1132 14.85 42.8532C14.6967 42.5999 14.43 42.3399 14.05 42.0732H6V40.0732H16.56V41.7632L15.42 41.9132C15.84 42.2132 16.18 42.5399 16.44 42.8932C16.7067 43.2466 16.84 43.6732 16.84 44.1732C16.84 44.5732 16.74 44.9366 16.54 45.2632C16.34 45.5899 15.99 45.8299 15.49 45.9832C15.89 46.2766 16.2133 46.6099 16.46 46.9832C16.7133 47.3566 16.84 47.7966 16.84 48.3032ZM16.84 57.2454C16.84 58.2788 16.61 59.1488 16.15 59.8554C15.69 60.5621 15.0467 61.0954 14.22 61.4554C13.3933 61.8221 12.42 62.0054 11.3 62.0054C10.1867 62.0054 9.21 61.8188 8.37 61.4454C7.53667 61.0788 6.88667 60.5388 6.42 59.8254C5.96 59.1188 5.73 58.2554 5.73 57.2354C5.73 56.2154 5.95333 55.3488 6.4 54.6354C6.85333 53.9288 7.49667 53.3888 8.33 53.0154C9.16333 52.6488 10.1467 52.4654 11.28 52.4654C12.38 52.4654 13.3467 52.6488 14.18 53.0154C15.0133 53.3888 15.6633 53.9321 16.13 54.6454C16.6033 55.3588 16.84 56.2254 16.84 57.2454ZM15.1 57.2454C15.1 56.4388 14.79 55.8321 14.17 55.4254C13.5567 55.0188 12.5933 54.8154 11.28 54.8154C9.97333 54.8154 9.01 55.0154 8.39 55.4154C7.77 55.8221 7.46 56.4288 7.46 57.2354C7.46 58.0421 7.77 58.6454 8.39 59.0454C9.01 59.4521 9.98 59.6554 11.3 59.6554C12.6 59.6554 13.5567 59.4554 14.17 59.0554C14.79 58.6554 15.1 58.0521 15.1 57.2454ZM21.02 67.2476H15.27C15.79 67.6743 16.18 68.1743 16.44 68.7476C16.7067 69.3209 16.84 69.9109 16.84 70.5176C16.84 71.5109 16.5633 72.2509 16.01 72.7376C15.4633 73.2243 14.6933 73.4676 13.7 73.4676L6 73.4676V71.2276L13.35 71.2276C13.9833 71.2276 14.4367 71.1076 14.71 70.8676C14.99 70.6276 15.13 70.2409 15.13 69.7076C15.13 69.3743 15.0533 69.0543 14.9 68.7476C14.7533 68.4476 14.56 68.1676 14.32 67.9076C14.08 67.6543 13.8233 67.4343 13.55 67.2476L6 67.2476V65.0076L20.78 65.0076L21.02 67.2476ZM8.59 85.0698C8.17667 85.0698 7.87333 85.1331 7.68 85.2598C7.49333 85.3865 7.35333 85.5898 7.26 85.8698L5.74 85.3698C5.8 84.8498 5.94333 84.4031 6.17 84.0298C6.39667 83.6565 6.74 83.3731 7.2 83.1798C6.71333 82.7931 6.34667 82.3031 6.1 81.7098C5.85333 81.1165 5.73 80.4831 5.73 79.8098C5.73 78.7431 6.03 77.8965 6.63 77.2698C7.23667 76.6498 8.03 76.3398 9.01 76.3398C10.1233 76.3398 10.98 76.7731 11.58 77.6398C12.18 78.5065 12.48 79.7465 12.48 81.3598L12.48 82.8698H13.17C13.85 82.8698 14.34 82.6631 14.64 82.2498C14.94 81.8431 15.09 81.2665 15.09 80.5198C15.09 80.1731 15.0433 79.7531 14.95 79.2598C14.8633 78.7665 14.7267 78.2498 14.54 77.7098L16.12 77.1598C16.3667 77.8198 16.5467 78.4665 16.66 79.0998C16.78 79.7331 16.84 80.3198 16.84 80.8598C16.84 82.2731 16.5267 83.3265 15.9 84.0198C15.2733 84.7198 14.4067 85.0698 13.3 85.0698L8.59 85.0698ZM7.38 80.4898C7.38 80.9431 7.5 81.3865 7.74 81.8198C7.98 82.2531 8.31667 82.6031 8.75 82.8698L11.08 82.8698L11.08 81.6298C11.08 80.5765 10.9033 79.8231 10.55 79.3698C10.2033 78.9165 9.72333 78.6898 9.11 78.6898C8.55 78.6898 8.12 78.8398 7.82 79.1398C7.52667 79.4465 7.38 79.8965 7.38 80.4898ZM16.84 96.272C16.84 96.672 16.7533 97.032 16.58 97.352C16.4067 97.672 16.1033 97.922 15.67 98.102C15.2367 98.2887 14.63 98.382 13.85 98.382L6 98.382V96.392L13.54 96.392C14.0933 96.392 14.49 96.352 14.73 96.272C14.97 96.1987 15.09 96.002 15.09 95.682C15.09 95.4287 15.01 95.172 14.85 94.912C14.6967 94.652 14.43 94.3887 14.05 94.122L6 94.122L6 92.312L13.54 92.312C14.0933 92.312 14.49 92.272 14.73 92.192C14.97 92.1187 15.09 91.922 15.09 91.602C15.09 91.342 15.01 91.082 14.85 90.822C14.6967 90.5687 14.43 90.3087 14.05 90.042L6 90.042V88.042L16.56 88.042V89.732L15.42 89.882C15.84 90.182 16.18 90.5087 16.44 90.862C16.7067 91.2153 16.84 91.642 16.84 92.142C16.84 92.542 16.74 92.9053 16.54 93.232C16.34 93.5587 15.99 93.7987 15.49 93.952C15.89 94.2453 16.2133 94.5787 16.46 94.952C16.7133 95.3253 16.84 95.7653 16.84 96.272ZM10.56 102.844C9.84 102.891 9.25 103.044 8.79 103.304C8.33667 103.564 8.00333 103.904 7.79 104.324C7.57667 104.751 7.47 105.218 7.47 105.724C7.47 106.244 7.55 106.724 7.71 107.164C7.87 107.604 8.09667 108.048 8.39 108.494L7.05 109.464C6.65 108.971 6.33 108.394 6.09 107.734C5.85 107.074 5.73 106.368 5.73 105.614C5.73 104.521 5.96333 103.594 6.43 102.834C6.89667 102.081 7.54667 101.508 8.38 101.114C9.21333 100.721 10.1767 100.524 11.27 100.524C12.33 100.524 13.2767 100.718 14.11 101.104C14.95 101.491 15.6133 102.044 16.1 102.764C16.5933 103.484 16.84 104.344 16.84 105.344C16.84 106.284 16.6267 107.091 16.2 107.764C15.7733 108.444 15.1667 108.968 14.38 109.334C13.6 109.708 12.66 109.894 11.56 109.894C11.38 109.894 11.2 109.888 11.02 109.874C10.8467 109.868 10.6933 109.858 10.56 109.844L10.56 102.844ZM15.18 105.364C15.18 104.664 14.93 104.084 14.43 103.624C13.93 103.171 13.15 102.908 12.09 102.834L12.09 107.724C13.0833 107.704 13.8467 107.491 14.38 107.084C14.9133 106.684 15.18 106.111 15.18 105.364ZM21.05 119.176L20.8 121.416L6 121.416V119.446L7.3 119.286C6.8 118.926 6.41333 118.496 6.14 117.996C5.86667 117.496 5.73 116.936 5.73 116.316C5.73 115.41 5.96 114.663 6.42 114.076C6.88667 113.49 7.53667 113.053 8.37 112.766C9.21 112.486 10.18 112.346 11.28 112.346C12.3533 112.346 13.3067 112.513 14.14 112.846C14.98 113.18 15.64 113.656 16.12 114.276C16.6 114.896 16.84 115.643 16.84 116.516C16.84 117.07 16.74 117.566 16.54 118.006C16.3467 118.446 16.0633 118.836 15.69 119.176H21.05ZM15.12 117.106C15.12 116.353 14.8067 115.766 14.18 115.346C13.56 114.926 12.5933 114.716 11.28 114.716C10.38 114.716 9.64667 114.803 9.08 114.976C8.52 115.15 8.10667 115.4 7.84 115.726C7.58 116.053 7.45 116.446 7.45 116.906C7.45 117.413 7.59667 117.853 7.89 118.226C8.18333 118.6 8.53667 118.916 8.95 119.176H13.95C14.3233 118.916 14.61 118.613 14.81 118.266C15.0167 117.92 15.12 117.533 15.12 117.106ZM20.08 128.389L19.33 130.279L10.92 126.759L10.92 133.949H9.18L9.18 124.419H10.74L20.08 128.389ZM14.61 132.309H6V130.159L10.6 130.139L14.61 130.429L14.61 132.309ZM19.8 145.131L18.12 144.841L18.12 139.541H14.28C14.4867 139.934 14.6267 140.314 14.7 140.681C14.78 141.054 14.82 141.427 14.82 141.801C14.82 142.534 14.6467 143.187 14.3 143.761C13.9533 144.334 13.4533 144.784 12.8 145.111C12.1467 145.444 11.3567 145.611 10.43 145.611C9.51 145.611 8.69333 145.404 7.98 144.991C7.27333 144.584 6.72 144.011 6.32 143.271C5.92667 142.531 5.73 141.661 5.73 140.661C5.73 139.761 5.89 138.961 6.21 138.261C6.53667 137.567 6.98 136.957 7.54 136.431L8.8 137.771C8.37333 138.157 8.05 138.581 7.83 139.041C7.61667 139.507 7.51 140.017 7.51 140.571C7.51 141.411 7.76333 142.071 8.27 142.551C8.78333 143.037 9.50667 143.281 10.44 143.281C11.12 143.281 11.6567 143.181 12.05 142.981C12.45 142.787 12.7367 142.521 12.91 142.181C13.0833 141.841 13.17 141.457 13.17 141.031C13.17 140.684 13.1333 140.357 13.06 140.051C12.9867 139.751 12.87 139.417 12.71 139.051L12.71 137.401H19.8L19.8 145.131ZM20.06 153.013C20.06 154.06 19.83 154.933 19.37 155.633C18.91 156.333 18.26 156.856 17.42 157.203C16.5867 157.556 15.6033 157.733 14.47 157.733C13.1033 157.733 11.9267 157.58 10.94 157.273C9.96 156.973 9.12667 156.506 8.44 155.873C7.75333 155.246 7.17667 154.443 6.71 153.463C6.24333 152.49 5.84333 151.326 5.51 149.973L7.15 149.483C7.49 150.743 7.89667 151.796 8.37 152.643C8.85 153.49 9.44667 154.14 10.16 154.593C10.88 155.053 11.7567 155.32 12.79 155.393L13.79 155.413C14.8767 155.42 15.7567 155.346 16.43 155.193C17.1033 155.04 17.5933 154.786 17.9 154.433C18.2067 154.08 18.36 153.603 18.36 153.003C18.36 152.236 18.11 151.646 17.61 151.233C17.11 150.82 16.36 150.613 15.36 150.613C14.3867 150.613 13.6867 150.813 13.26 151.213C12.8333 151.62 12.62 152.156 12.62 152.823C12.62 153.423 12.7767 153.95 13.09 154.403C13.41 154.856 13.8467 155.293 14.4 155.713L12.81 155.693C12.2567 155.253 11.8067 154.756 11.46 154.203C11.12 153.656 10.95 153.01 10.95 152.263C10.95 151.51 11.1267 150.836 11.48 150.243C11.84 149.65 12.35 149.183 13.01 148.843C13.6767 148.503 14.46 148.333 15.36 148.333C16.3533 148.333 17.2 148.54 17.9 148.953C18.6 149.373 19.1333 149.936 19.5 150.643C19.8733 151.35 20.06 152.14 20.06 153.013ZM16.51 169.475C15.85 169.475 15.2767 169.282 14.79 168.895C14.31 168.508 13.86 167.935 13.44 167.175C13.04 168.088 12.5233 168.792 11.89 169.285C11.2633 169.778 10.54 170.025 9.72 170.025C8.98 170.025 8.30667 169.832 7.7 169.445C7.1 169.058 6.62 168.498 6.26 167.765C5.90667 167.038 5.73 166.155 5.73 165.115C5.73 164.082 5.90667 163.205 6.26 162.485C6.61333 161.765 7.08667 161.222 7.68 160.855C8.28 160.488 8.94333 160.305 9.67 160.305C10.4967 160.305 11.2 160.548 11.78 161.035C12.3667 161.522 12.8433 162.172 13.21 162.985C13.5967 162.265 14.03 161.728 14.51 161.375C14.9967 161.028 15.6233 160.855 16.39 160.855C17.01 160.855 17.5467 160.978 18 161.225C18.46 161.472 18.8433 161.802 19.15 162.215C19.4633 162.628 19.6967 163.092 19.85 163.605C20.0033 164.118 20.08 164.642 20.08 165.175C20.08 165.742 20.0033 166.282 19.85 166.795C19.7033 167.308 19.48 167.765 19.18 168.165C18.8867 168.572 18.5167 168.892 18.07 169.125C17.6233 169.358 17.1033 169.475 16.51 169.475ZM9.71 167.735C10.27 167.735 10.7167 167.602 11.05 167.335C11.3833 167.075 11.6633 166.698 11.89 166.205C12.1167 165.712 12.35 165.122 12.59 164.435C12.4167 164.102 12.2 163.795 11.94 163.515C11.6867 163.235 11.38 163.012 11.02 162.845C10.66 162.678 10.2333 162.595 9.74 162.595C9.03333 162.595 8.47 162.808 8.05 163.235C7.63667 163.662 7.43 164.298 7.43 165.145C7.43 165.998 7.65 166.642 8.09 167.075C8.53 167.515 9.07 167.735 9.71 167.735ZM16.38 163.025C15.9267 163.025 15.56 163.128 15.28 163.335C15 163.542 14.7633 163.842 14.57 164.235C14.3833 164.628 14.1933 165.105 14 165.665C14.3533 166.232 14.7067 166.645 15.06 166.905C15.42 167.172 15.8667 167.305 16.4 167.305C17.02 167.305 17.5167 167.122 17.89 166.755C18.2633 166.388 18.45 165.862 18.45 165.175C18.45 164.495 18.27 163.965 17.91 163.585C17.55 163.212 17.04 163.025 16.38 163.025ZM5.76 176.017L6.41 173.907L18.04 179.197V172.877H19.8V181.467H18.19L5.76 176.017ZM20.08 188.849C20.08 189.849 19.9333 190.703 19.64 191.409C19.3533 192.116 18.95 192.699 18.43 193.159C17.9167 193.626 17.31 193.989 16.61 194.249C15.91 194.509 15.15 194.693 14.33 194.799C13.51 194.906 12.66 194.959 11.78 194.959C10.1 194.959 8.69333 194.879 7.56 194.719C6.43333 194.559 5.58667 194.259 5.02 193.819C4.44667 193.386 4.16 192.759 4.16 191.939C4.16 191.539 4.25 191.189 4.43 190.889C4.61 190.596 4.84333 190.353 5.13 190.159C5.41 189.973 5.71333 189.829 6.04 189.729C6.37333 189.636 6.68667 189.583 6.98 189.569V189.489C6.66 189.356 6.35333 189.173 6.06 188.939C5.76667 188.706 5.52667 188.409 5.34 188.049C5.15333 187.689 5.06 187.249 5.06 186.729C5.06 185.983 5.26 185.383 5.66 184.929C6.05333 184.476 6.59667 184.146 7.29 183.939C7.98333 183.733 8.76667 183.629 9.64 183.629C11.34 183.629 12.6367 183.976 13.53 184.669C14.43 185.363 14.88 186.366 14.88 187.679C14.88 188.173 14.82 188.659 14.7 189.139C14.5867 189.626 14.38 190.149 14.08 190.709H8.14C7.50667 190.709 7.01667 190.759 6.67 190.859C6.32333 190.959 6.08333 191.096 5.95 191.269C5.81667 191.449 5.75 191.653 5.75 191.879C5.75 192.146 5.88667 192.353 6.16 192.499C6.43333 192.653 6.82667 192.763 7.34 192.829C7.86 192.896 8.48667 192.936 9.22 192.949C9.95333 192.963 10.78 192.969 11.7 192.969C12.6867 192.969 13.59 192.913 14.41 192.799C15.2367 192.693 15.95 192.489 16.55 192.189C17.15 191.896 17.6133 191.476 17.94 190.929C18.2667 190.383 18.43 189.673 18.43 188.799C18.43 188.126 18.3033 187.416 18.05 186.669C17.7967 185.929 17.31 185.149 16.59 184.329L17.84 183.249C18.6267 184.156 19.1967 185.073 19.55 185.999C19.9033 186.933 20.08 187.883 20.08 188.849ZM13.36 187.709C13.36 186.943 13.06 186.419 12.46 186.139C11.8667 185.859 10.9267 185.719 9.64 185.719C9 185.719 8.45333 185.759 8 185.839C7.54667 185.919 7.2 186.059 6.96 186.259C6.72 186.459 6.6 186.729 6.6 187.069C6.6 187.476 6.69333 187.793 6.88 188.019C7.06667 188.246 7.28667 188.416 7.54 188.529C7.8 188.643 8.02667 188.729 8.22 188.789H13.1C13.1933 188.609 13.26 188.436 13.3 188.269C13.34 188.103 13.36 187.916 13.36 187.709ZM17.9 205.812L16.04 206.412C15.9 205.992 15.8067 205.528 15.76 205.022C15.7133 204.522 15.69 203.962 15.69 203.342C15.41 203.975 15.05 204.452 14.61 204.772C14.1767 205.092 13.6433 205.252 13.01 205.252C12.3233 205.252 11.71 205.085 11.17 204.752C10.63 204.418 10.2067 203.942 9.9 203.322C9.59333 202.702 9.44 201.958 9.44 201.092C9.44 200.785 9.45333 200.518 9.48 200.292C9.50667 200.072 9.55 199.855 9.61 199.642C9.51667 199.508 9.39 199.395 9.23 199.302C9.07667 199.215 8.91333 199.172 8.74 199.172C8.52667 199.172 8.34 199.258 8.18 199.432C8.02667 199.612 7.95 199.965 7.95 200.492V202.332C7.95 203.085 7.82 203.748 7.56 204.322C7.30667 204.902 6.95667 205.355 6.51 205.682C6.07 206.015 5.57 206.182 5.01 206.182C3.95667 206.182 3.14 205.728 2.56 204.822C1.98 203.915 1.69 202.608 1.69 200.902C1.69 199.695 1.81333 198.748 2.06 198.062C2.30667 197.375 2.67333 196.892 3.16 196.612C3.64667 196.332 4.24333 196.192 4.95 196.192L4.95 198.202C4.58333 198.202 4.28 198.272 4.04 198.412C3.8 198.558 3.62 198.828 3.5 199.222C3.38 199.615 3.32 200.182 3.32 200.922C3.32 201.662 3.38333 202.248 3.51 202.682C3.63 203.122 3.80667 203.438 4.04 203.632C4.26667 203.832 4.54 203.932 4.86 203.932C5.28667 203.932 5.61667 203.745 5.85 203.372C6.08333 202.998 6.2 202.498 6.2 201.872V200.062C6.2 199.062 6.40333 198.328 6.81 197.862C7.21667 197.402 7.69 197.172 8.23 197.172C8.59 197.172 8.93667 197.272 9.27 197.472C9.60333 197.678 9.89333 197.972 10.14 198.352C10.4733 197.718 10.8767 197.255 11.35 196.962C11.83 196.675 12.41 196.532 13.09 196.532C13.8367 196.532 14.49 196.718 15.05 197.092C15.61 197.465 16.0467 197.982 16.36 198.642C16.6733 199.308 16.83 200.075 16.83 200.942C16.83 201.788 16.8733 202.495 16.96 203.062C17.0533 203.628 17.1833 204.122 17.35 204.542C17.5167 204.968 17.7 205.392 17.9 205.812ZM15.29 200.962C15.29 200.248 15.0867 199.712 14.68 199.352C14.28 198.992 13.7567 198.812 13.11 198.812C12.4433 198.812 11.9067 198.995 11.5 199.362C11.1 199.735 10.9 200.278 10.9 200.992C10.9 201.652 11.0933 202.155 11.48 202.502C11.8667 202.855 12.4167 203.032 13.13 203.032C13.85 203.032 14.39 202.858 14.75 202.512C15.11 202.165 15.29 201.648 15.29 200.962ZM16.84 216.194C16.84 216.594 16.7533 216.954 16.58 217.274C16.4067 217.594 16.1033 217.844 15.67 218.024C15.2367 218.211 14.63 218.304 13.85 218.304H6V216.314H13.54C14.0933 216.314 14.49 216.274 14.73 216.194C14.97 216.121 15.09 215.924 15.09 215.604C15.09 215.351 15.01 215.094 14.85 214.834C14.6967 214.574 14.43 214.311 14.05 214.044H6L6 212.234H13.54C14.0933 212.234 14.49 212.194 14.73 212.114C14.97 212.041 15.09 211.844 15.09 211.524C15.09 211.264 15.01 211.004 14.85 210.744C14.6967 210.491 14.43 210.231 14.05 209.964H6V207.964H16.56V209.654L15.42 209.804C15.84 210.104 16.18 210.431 16.44 210.784C16.7067 211.137 16.84 211.564 16.84 212.064C16.84 212.464 16.74 212.827 16.54 213.154C16.34 213.481 15.99 213.721 15.49 213.874C15.89 214.167 16.2133 214.501 16.46 214.874C16.7133 215.247 16.84 215.687 16.84 216.194ZM8.59 228.976C8.17667 228.976 7.87333 229.039 7.68 229.166C7.49333 229.293 7.35333 229.496 7.26 229.776L5.74 229.276C5.8 228.756 5.94333 228.309 6.17 227.936C6.39667 227.563 6.74 227.279 7.2 227.086C6.71333 226.699 6.34667 226.209 6.1 225.616C5.85333 225.023 5.73 224.389 5.73 223.716C5.73 222.649 6.03 221.803 6.63 221.176C7.23667 220.556 8.03 220.246 9.01 220.246C10.1233 220.246 10.98 220.679 11.58 221.546C12.18 222.413 12.48 223.653 12.48 225.266V226.776H13.17C13.85 226.776 14.34 226.569 14.64 226.156C14.94 225.749 15.09 225.173 15.09 224.426C15.09 224.079 15.0433 223.659 14.95 223.166C14.8633 222.673 14.7267 222.156 14.54 221.616L16.12 221.066C16.3667 221.726 16.5467 222.373 16.66 223.006C16.78 223.639 16.84 224.226 16.84 224.766C16.84 226.179 16.5267 227.233 15.9 227.926C15.2733 228.626 14.4067 228.976 13.3 228.976H8.59ZM7.38 224.396C7.38 224.849 7.5 225.293 7.74 225.726C7.98 226.159 8.31667 226.509 8.75 226.776H11.08V225.536C11.08 224.483 10.9033 223.729 10.55 223.276C10.2033 222.823 9.72333 222.596 9.11 222.596C8.55 222.596 8.12 222.746 7.82 223.046C7.52667 223.353 7.38 223.803 7.38 224.396ZM16.56 238.668H7.64V241.538H6L6 233.268H7.64V236.428H14.92L14.92 233.368H16.56L16.56 238.668ZM21.73 237.108C21.73 237.548 21.5967 237.902 21.33 238.168C21.0633 238.442 20.73 238.578 20.33 238.578C19.93 238.578 19.5933 238.442 19.32 238.168C19.0467 237.902 18.91 237.548 18.91 237.108C18.91 236.682 19.0467 236.332 19.32 236.058C19.5933 235.785 19.93 235.648 20.33 235.648C20.73 235.648 21.0633 235.785 21.33 236.058C21.5967 236.332 21.73 236.682 21.73 237.108ZM20.8 249.53H8.88C8.39333 249.53 8.04667 249.677 7.84 249.97C7.64 250.27 7.54 250.657 7.54 251.13C7.54 251.437 7.57333 251.727 7.64 252C7.70667 252.274 7.79 252.54 7.89 252.8L6.33 253.37C6.17 253.057 6.03 252.67 5.91 252.21C5.79 251.757 5.73 251.237 5.73 250.65C5.73 249.59 6.02667 248.764 6.62 248.17C7.22 247.584 8.04 247.29 9.08 247.29H19.15L19.15 244.1H20.8L20.8 249.53ZM7.67 259.163C8.03 259.163 8.35333 259.246 8.64 259.413C8.93333 259.586 9.16667 259.819 9.34 260.113C9.51333 260.406 9.6 260.733 9.6 261.093C9.6 261.459 9.51333 261.789 9.34 262.083C9.16667 262.376 8.93333 262.606 8.64 262.773C8.35333 262.946 8.03 263.033 7.67 263.033C7.31667 263.033 6.99 262.946 6.69 262.773C6.39667 262.606 6.16333 262.376 5.99 262.083C5.81667 261.789 5.73 261.459 5.73 261.093C5.73 260.733 5.81667 260.406 5.99 260.113C6.16333 259.819 6.39667 259.586 6.69 259.413C6.99 259.246 7.31667 259.163 7.67 259.163ZM7.57 273.965C7.57 274.458 7.65333 274.918 7.82 275.345C7.99333 275.771 8.21667 276.178 8.49 276.565L7.05 277.605C6.65667 277.145 6.33667 276.585 6.09 275.925C5.85 275.271 5.73 274.595 5.73 273.895C5.73 272.815 5.95667 271.891 6.41 271.125C6.87 270.358 7.51333 269.771 8.34 269.365C9.16667 268.958 10.13 268.755 11.23 268.755C12.3033 268.755 13.26 268.958 14.1 269.365C14.9467 269.778 15.6133 270.371 16.1 271.145C16.5933 271.918 16.84 272.848 16.84 273.935C16.84 274.655 16.7333 275.318 16.52 275.925C16.3067 276.531 15.99 277.088 15.57 277.595L14.16 276.565C14.4467 276.151 14.6633 275.728 14.81 275.295C14.9633 274.868 15.04 274.428 15.04 273.975C15.04 273.141 14.7333 272.458 14.12 271.925C13.5067 271.398 12.5433 271.135 11.23 271.135C10.35 271.135 9.64 271.255 9.1 271.495C8.56667 271.741 8.17667 272.078 7.93 272.505C7.69 272.931 7.57 273.418 7.57 273.965ZM16.84 285.097C16.84 286.13 16.61 287 16.15 287.707C15.69 288.414 15.0467 288.947 14.22 289.307C13.3933 289.674 12.42 289.857 11.3 289.857C10.1867 289.857 9.21 289.67 8.37 289.297C7.53667 288.93 6.88667 288.39 6.42 287.677C5.96 286.97 5.73 286.107 5.73 285.087C5.73 284.067 5.95333 283.2 6.4 282.487C6.85333 281.78 7.49667 281.24 8.33 280.867C9.16333 280.5 10.1467 280.317 11.28 280.317C12.38 280.317 13.3467 280.5 14.18 280.867C15.0133 281.24 15.6633 281.784 16.13 282.497C16.6033 283.21 16.84 284.077 16.84 285.097ZM15.1 285.097C15.1 284.29 14.79 283.684 14.17 283.277C13.5567 282.87 12.5933 282.667 11.28 282.667C9.97333 282.667 9.01 282.867 8.39 283.267C7.77 283.674 7.46 284.28 7.46 285.087C7.46 285.894 7.77 286.497 8.39 286.897C9.01 287.304 9.98 287.507 11.3 287.507C12.6 287.507 13.5567 287.307 14.17 286.907C14.79 286.507 15.1 285.904 15.1 285.097ZM16.84 300.139C16.84 300.539 16.7533 300.899 16.58 301.219C16.4067 301.539 16.1033 301.789 15.67 301.969C15.2367 302.156 14.63 302.249 13.85 302.249H6L6 300.259H13.54C14.0933 300.259 14.49 300.219 14.73 300.139C14.97 300.066 15.09 299.869 15.09 299.549C15.09 299.296 15.01 299.039 14.85 298.779C14.6967 298.519 14.43 298.256 14.05 297.989H6V296.179H13.54C14.0933 296.179 14.49 296.139 14.73 296.059C14.97 295.986 15.09 295.789 15.09 295.469C15.09 295.209 15.01 294.949 14.85 294.689C14.6967 294.436 14.43 294.176 14.05 293.909H6L6 291.909H16.56V293.599L15.42 293.749C15.84 294.049 16.18 294.376 16.44 294.729C16.7067 295.082 16.84 295.509 16.84 296.009C16.84 296.409 16.74 296.772 16.54 297.099C16.34 297.426 15.99 297.666 15.49 297.819C15.89 298.112 16.2133 298.446 16.46 298.819C16.7133 299.192 16.84 299.632 16.84 300.139Z" fill="#8892B0"/>
</svg>
