<svg width="25" height="24" viewBox="0 0 25 24" fill="none" xmlns="http://www.w3.org/2000/svg">
<path d="M23.3335 5.54963C22.536 5.88963 21.6793 6.11843 20.7802 6.22163C21.6985 5.69363 22.4027 4.85763 22.7343 3.86083C21.876 4.34963 20.9243 4.70483 19.911 4.89683C19.1002 4.06723 17.9452 3.54883 16.6668 3.54883C14.2118 3.54883 12.2218 5.46003 12.2218 7.81603C12.2218 8.15043 12.2618 8.47683 12.3368 8.78803C8.64268 8.61043 5.36768 6.91123 3.17435 4.32883C2.79268 4.95923 2.57352 5.69203 2.57352 6.47523C2.57352 7.95523 3.35768 9.26163 4.55018 10.0264C3.82185 10.004 3.13602 9.81203 2.53685 9.49283C2.53685 9.51123 2.53685 9.52803 2.53685 9.54643C2.53685 11.6144 4.06852 13.3392 6.10268 13.7304C5.73018 13.828 5.33685 13.88 4.93102 13.88C4.64518 13.88 4.36602 13.8528 4.09518 13.804C4.66102 15.4992 6.30268 16.7336 8.24768 16.768C6.72685 17.9128 4.81018 18.5952 2.72685 18.5952C2.36852 18.5952 2.01435 18.5752 1.66602 18.5352C3.63352 19.7456 5.96935 20.452 8.48018 20.452C16.6568 20.452 21.1268 13.9496 21.1268 8.31043C21.1268 8.12563 21.1227 7.94163 21.1143 7.75843C21.9835 7.15603 22.7377 6.40483 23.3335 5.54963Z" fill="#CCD6F6"/>
</svg>
